<?xml version="1.0" encoding="UTF-8"?>
<svg id="Calque_1" data-name="Calque 1" xmlns="http://www.w3.org/2000/svg" version="1.1" viewBox="0 0 189.5 118.7">
  <defs>
    <style>
      .cls-1 {
        fill: #eb6508;
      }

      .cls-1, .cls-2 {
        stroke-width: 0px;
      }

      .cls-2 {
        fill: #f3c430;
      }
    </style>
  </defs>
  <g>
    <path class="cls-1" d="M22.3,64l1.7,4.8,1.8,6.7h.2s2-7.2,2-7.2l2.5-6.5,2.8.6h2.8s.6,8.8.6,8.8l1.1,8.9.4,6.7-4.8.4-.7-.5-.4-4-.6-4.5.2-7.9h-.3s-2.6,8-2.6,8l-1.4,2.5-3.3.3-1.7-2.9-2.6-8h-.4c0,0,.1,9.4.1,9.4l-.2,5.3-.4,2.2-3.5-.4h-2.3c0,.1.8-6.5.8-6.5l.4-8.9,1.1-9,4.8-.5,1.6,2.2Z"/>
    <path class="cls-1" d="M60.7,87h-3.1c0-.1-2.7.3-2.7.3l-1.1-5.1-4.3-.4-2,.5-.7,4.2-1,.8-5.4-.5,2.8-12.7,1.8-9.9,1.5-1.8,3.7-.5h3.5l2.3,1.9,1.3,7.5,1.6,6.6,1.7,9ZM49.4,60.7l-2.1-1.3,2.1-3.7,2-2.8,3.4,2.5v1.1s-5.4,4.2-5.4,4.2ZM49.8,78l3.4.3-.8-5.3-.9-7-1.1-.2-.9.3-.8,8.8-.5,3.2h1.6Z"/>
    <path class="cls-1" d="M75.8,87h-1.3s-1,.9-1,.9l-3.4-.7h-.8s-3.8-1.4-3.8-1.4l-2.9-5.9-.2-9.3,1.9-5.8,3.6-2.3,4.8-.7,6,1.6,2.7,5.6.7,7.2-2,8.4-4.4,2.4ZM75,82.3l1-4v-7.4s-1.3-4.1-1.3-4.1l-2.2-.8-2.3.5-.9.8-.8,4.3.2,6.8,1.1,3.8,2.4.9,2.7-.8Z"/>
    <path class="cls-1" d="M91.4,62.4l-.4,6.5.3,6v-.2s.5,1.5.5,1.5l.9,1,2.1.3,1.3-.8.4-1.9h0s.4-8.1.4-8.1l-.3-3.5.4-1,5.2.3.5,4.2-.5,8.1.2,1.1-2.6,4-3.5,1.3h-5.6c0-.1-3.2-1.9-3.2-1.9l-1.9-4.3v-1.3s-.3-4.7-.3-4.7l.2-6.1,1-1,4.9.5Z"/>
    <path class="cls-1" d="M121.8,62.3l1.4,2.5,2.8,5.5,2.1,4.6,2.2,5.6h.2l-.3-2.8-.3-5.3-.3-6,.2-4,2.3-.3,3.2.3-.4,4.2.3,6.3v6.6c0,0-.2,4.2-.2,4.2l.2,3-1.3.5-3.9-.3-2.2-3.7-3-4.8-2.6-6.8.3,4.3.3,4v3.6l.3,3.8-5.3-.2-.3-1,.2-5-.4-6.5.2-6.4-.2-5.5,1.1-.5,3.7.2Z"/>
    <path class="cls-1" d="M158.3,87h-3.1c0-.1-2.7.3-2.7.3l-1.1-5.1-4.3-.4-2,.5-.7,4.2-1,.8-5.4-.5,2.8-12.7,1.8-9.9,1.5-1.8,3.7-.5h3.5l2.3,1.9,1.3,7.5,1.6,6.6,1.7,9ZM147.3,78l3.4.3-.8-5.3-.9-7-1.1-.2-.9.3-.8,8.8-.5,3.2h1.6Z"/>
    <path class="cls-1" d="M174.5,66.8l-1,.8-3.1-1.5h-2.1l-2,.9-.6,3.2,1.5,2.1,6.3,2.5,2.1,3.7-.7,6-2.8,2.4-7,.6-4.9-1.2v-3.9s1.2-1,1.2-1l3.4,1.4,3.2.2,1.7-1,.3-2.4-.7-1.2-4.8-1.9-2.7-2.2-1.9-4.1,1.3-6.5,4.8-1.9,5.7.2,2.9.8-.2,3.9Z"/>
    <path class="cls-1" d="M74.2,86.4l1,.7-1.8,2.2.7-1.1,1.1,1.4,3.9.3,2.5-1.1,3-4.6,4.5-1.6,7.4.3,3,1.9,1.6,3.6h3.8l1,.9-.5,3.2-1,.6-5.4-2.3-2.5-1-1.2-.6-.6-1.3-1.3-1.2h-2.9c0-.1-1.5.4-1.5.4l-2.2,3.5-2.6,2-4.9,1.5-8-.7-2.4-3.3-.5-1.5,1-2.1h4.8Z"/>
    <path class="cls-1" d="M6,93.1l6,.7,3.6,2.6,2.3,8.3v4.9c-.1,0-2.2,6.4-2.2,6.4l-2.6,2.2-7.1.4-5.8-.5.4-7.6-.5-6.9.2-5.1v-4.6s5.8-.8,5.8-.8ZM5.8,98.9v5l.4,5.2-.2,5.3,1.4.4,3.2-.5,1.1-2.8.3-6.7-1.8-7.2-2.9-.8-1.7.3v1.7Z"/>
    <path class="cls-1" d="M32.9,93.1l5.5,2.7,1.9,6.9v6.4l-1.7,6.6-2.6,2-6.1,1-5.2-1.3-3.3-4.7-1-8,1.4-7.3,1.5-2,3.7-1.9,5.9-.4ZM28.5,97.7l-1.2,1.3-.8,6.1.3,5.6,1.2,3.2,2.4.7,2.7-.9,1.1-4.5-.2-7.2-1.1-3.8-2-.8-2.4.3Z"/>
    <path class="cls-1" d="M56.8,93.1l6,.7,3.6,2.6,2.3,8.3v4.9c-.1,0-2.2,6.4-2.2,6.4l-2.6,2.2-7.1.4-5.8-.5.4-7.6-.5-6.9.2-5.1v-4.6s5.8-.8,5.8-.8ZM56.6,98.9v5l.4,5.2-.2,5.3,1.4.4,3.2-.5,1.1-2.8.3-6.7-1.8-7.2-2.9-.8-1.7.3v1.7Z"/>
    <path class="cls-1" d="M77.2,96.3l.4,2.2v3.9c.1,0,.1,9.4.1,9.4l.3,5.7-.3.6h-4.5c0,0-.9-.8-.9-.8l-.2-6.1v-8.8s0,0,0,0l-.4-5.3,1.3-.6h4.3Z"/>
    <path class="cls-1" d="M111.9,65.7l.4,2.2v3.9c.1,0,.1,9.4.1,9.4l.3,5.7-.3.6h-4.5c0,0-.9-.8-.9-.8l-.2-6.1v-8.8s0,0,0,0l-.4-5.3,1.3-.6h4.3Z"/>
    <path class="cls-1" d="M101.2,118.3h-3.1c0-.1-2.7.3-2.7.3l-1.1-5.1-4.3-.4-2,.5-.7,4.2-1,.8-5.4-.5,2.8-12.7,1.8-9.9,1.5-1.8,3.7-.5h3.5l2.3,1.9,1.3,7.5,1.6,6.6,1.7,9ZM90.2,109.2l3.4.3-.8-5.3-.9-7-1.1-.2-.9.3-.8,8.8-.5,3.2h1.6Z"/>
    <path class="cls-1" d="M129.6,118.3h-3.1c0-.1-2.7.3-2.7.3l-1.1-5.1-4.3-.4-2,.5-.7,4.2-1,.8-5.4-.5,2.8-12.7,1.8-9.9,1.5-1.8,3.7-.5h3.5l2.3,1.9,1.3,7.5,1.6,6.6,1.7,9ZM118.6,109.2l3.4.3-.8-5.3-.9-7-1.1-.2-.9.3-.8,8.8-.5,3.2h1.6Z"/>
    <path class="cls-1" d="M145.1,93.1l6,.7,3.6,2.6,2.3,8.3v4.9c-.1,0-2.2,6.4-2.2,6.4l-2.6,2.2-7.1.4-5.8-.5.4-7.6-.5-6.9.2-5.1v-4.6s5.8-.8,5.8-.8ZM144.9,98.9v5l.4,5.2-.2,5.3,1.4.4,3.2-.5,1.1-2.8.3-6.7-1.8-7.2-2.9-.8-1.7.3v1.7Z"/>
    <path class="cls-1" d="M189.5,118.3h-3.1c0-.1-2.7.3-2.7.3l-1.1-5.1-4.3-.4-2,.5-.7,4.2-1,.8-5.4-.5,2.8-12.7,1.8-9.9,1.5-1.8,3.7-.5h3.5l2.3,1.9,1.3,7.5,1.6,6.6,1.7,9ZM178.6,109.2l3.4.3-.8-5.3-.9-7-1.1-.2-.9.3-.8,8.8-.5,3.2h1.6Z"/>
    <path class="cls-1" d="M165.7,96.4l.4,2.2v3.9c.1,0,.1,9.4.1,9.4l.3,5.7-.3.6h-4.5c0,0-.9-.8-.9-.8l-.2-6.1v-8.8s0,0,0,0l-.4-5.3,1.3-.6h4.3Z"/>
  </g>
  <path class="cls-2" d="M39.1,55.2c0-10,21.4-34.2,55.9-34.2s55.8,24.2,55.8,34.3l23.4.5-2.3-5.7-1.1-2.2h-2.5s-9-.1-9-.1l-4.5.8-2.6-5,1.3-4.1,3.8-8.1,1.1-2.3-1.5-2.1-4-4.1-2.1-1.6-2.6.3-7.8,4.6-4.1,1.6-4.4-3.2-.3-4.2,1-9,.2-2.9-2.9-.6-5-2.7-2.6-.7-2.1,1.8-5.5,7-3.2,3.2-5.6-.8-1.5-4.2-2.8-8.7-.9-2.6-2.8-.2-5.9.3h-2.7s-1,2.5-1,2.5l-3.6,8.5-1,3.9-5.2,1.5-3-3.5-5.7-6.8-2.3-1h-2.5s-5.3,2.2-5.3,2.2l-1.8,1.8-.6,2.4,1,9.1-.2,4.1-4.5,3.3-4.1-2-7.9-4.1-2.5-.8-1.7,2-4.4,3.6-1.2,2.2,1,2.2,3.3,8.3,2,3.9-3.2,4.4-4.2-.5-9.1-.6-2.4.9-1.7,1.9-1.7,5.5v.4c0,0,23.2-.5,23.2-.5Z"/>
</svg>